<svg id="Layer_1" data-name="Layer 1" xmlns="http://www.w3.org/2000/svg" viewBox="0 0 32 32"><defs><style>.cls-1{fill:#00081a;}.cls-2{fill:#19f3b8;}</style></defs><path class="cls-1" d="M944,540q0-7.86,0-15.71c0-.22,0-.26.26-.26h31.48c.22,0,.26,0,.26.26q0,15.74,0,31.48c0,.22,0,.26-.26.26H944.26c-.22,0-.26,0-.26-.26Q944,547.87,944,540Z" transform="translate(-944 -524)"/><path class="cls-2" d="M956.31,541.19c-1.2,0-2.32,0-3.44,0a.39.39,0,0,1-.29-.14c-1.38-1.52-2.76-3-4.13-4.56-.14-.16-.43-.29-.38-.5s.26-.33.41-.49l4-4.46a.6.6,0,0,1,.5-.23h14a.48.48,0,0,1,.41.14c1.47,1.63,2.94,3.25,4.43,4.87.14.16.15.23,0,.39-.38.38-.73.78-1.07,1.18a.64.64,0,0,1-.53.24H953.07Z" transform="translate(-944 -524)"/><path class="cls-2" d="M954.86,543.49h7L958.67,540h9.75L967,541.52c-1.84,2-3.69,4-5.53,6.07L960.16,549c-.1.12-.16.18-.3,0l-5-5.47S954.87,543.55,954.86,543.49Z" transform="translate(-944 -524)"/></svg>